<svg xmlns="http://www.w3.org/2000/svg" width="37.523" height="30.019" viewBox="0 0 37.523 30.019">
  <path id="Icon_awesome-user-plus" data-name="Icon awesome-user-plus" d="M36.585,12.2H32.833V8.443a.941.941,0,0,0-.938-.938H30.019a.941.941,0,0,0-.938.938V12.2H25.328a.941.941,0,0,0-.938.938v1.876a.941.941,0,0,0,.938.938h3.752V19.7a.941.941,0,0,0,.938.938h1.876a.941.941,0,0,0,.938-.938V15.947h3.752a.941.941,0,0,0,.938-.938V13.133A.941.941,0,0,0,36.585,12.2ZM13.133,15.009a7.5,7.5,0,1,0-7.5-7.5A7.5,7.5,0,0,0,13.133,15.009Zm5.253,1.876h-.979a10.206,10.206,0,0,1-8.548,0H7.88A7.882,7.882,0,0,0,0,24.765V27.2a2.815,2.815,0,0,0,2.814,2.814H23.452A2.815,2.815,0,0,0,26.266,27.2V24.765A7.882,7.882,0,0,0,18.386,16.886Z" fill="#b8b8b8"/>
</svg>
