<svg xmlns="http://www.w3.org/2000/svg" width="15.5" height="15.5" viewBox="0 0 15.5 15.5">
  <path id="tick-square-svgrepo-com_12_" data-name="tick-square-svgrepo-com (12)" d="M11.958,4.25h.083c1.369,0,2.454,0,3.32.088a4.827,4.827,0,0,1,2.277.712,4.751,4.751,0,0,1,1.31,1.311,4.827,4.827,0,0,1,.712,2.277c.088.866.088,1.951.088,3.32v.083c0,1.369,0,2.454-.088,3.32a4.827,4.827,0,0,1-.712,2.277,4.753,4.753,0,0,1-1.31,1.31,4.827,4.827,0,0,1-2.277.712c-.866.088-1.951.088-3.32.088h-.083c-1.369,0-2.454,0-3.32-.088a4.827,4.827,0,0,1-2.277-.712,4.751,4.751,0,0,1-1.311-1.31,4.827,4.827,0,0,1-.712-2.277c-.088-.866-.088-1.951-.088-3.32v-.083c0-1.369,0-2.454.088-3.32a4.826,4.826,0,0,1,.712-2.277A4.75,4.75,0,0,1,6.361,5.051a4.826,4.826,0,0,1,2.277-.712C9.5,4.25,10.589,4.25,11.958,4.25Zm4.05,5.8a.75.75,0,0,0-1.017-1.1l-3.86,3.557L9.519,10.959a.75.75,0,0,0-1.039,1.082L10.6,14.077a.75.75,0,0,0,1.028.01Z" transform="translate(-4.25 -4.25)" fill="#5b97ff" fill-rule="evenodd"/>
</svg>
