<svg xmlns="http://www.w3.org/2000/svg" width="21.243" height="16.522" viewBox="0 0 21.243 16.522">
  <path id="Icon_awesome-credit-card" data-name="Icon awesome-credit-card" d="M0,17a1.771,1.771,0,0,0,1.77,1.77h17.7A1.771,1.771,0,0,0,21.243,17V10.511H0Zm7.081-2.508a.444.444,0,0,1,.443-.443h5.016a.444.444,0,0,1,.443.443V15.97a.444.444,0,0,1-.443.443H7.524a.444.444,0,0,1-.443-.443Zm-4.721,0a.444.444,0,0,1,.443-.443H5.458a.444.444,0,0,1,.443.443V15.97a.444.444,0,0,1-.443.443H2.8a.444.444,0,0,1-.443-.443ZM21.243,4.02v1.77H0V4.02A1.771,1.771,0,0,1,1.77,2.25h17.7A1.771,1.771,0,0,1,21.243,4.02Z" transform="translate(0 -2.25)" fill="#fff"/>
</svg>
