<svg xmlns="http://www.w3.org/2000/svg" width="81.203" height="105.044" viewBox="0 0 81.203 105.044">
  <g id="fingerprint-svgrepo-com" transform="translate(-58.101)">
    <path id="Path_11801" data-name="Path 11801" d="M162.251,297.882a1.81,1.81,0,0,1-1.339-3.03l7.278-8.007a39.758,39.758,0,0,0,10.362-26.8V252.6a1.811,1.811,0,1,0-3.622,0v6.717a36.158,36.158,0,0,1-9.3,24.23l-7.466,8.3a1.811,1.811,0,0,1-2.692-2.423l7.466-8.3a32.545,32.545,0,0,0,8.368-21.807V252.6a5.433,5.433,0,0,1,10.867,0v7.441a43.373,43.373,0,0,1-11.3,29.238l-7.278,8.007A1.807,1.807,0,0,1,162.251,297.882Z" transform="translate(-77.025 -196.46)" fill="#00d231"/>
    <path id="Path_11802" data-name="Path 11802" d="M156.252,273.439a1.81,1.81,0,0,1-1.339-3.03l6.141-6.754A47,47,0,0,0,173.3,231.981V224.54a9.056,9.056,0,0,0-18.111,0v6.717a28.932,28.932,0,0,1-7.439,19.385l-5.308,5.9a1.811,1.811,0,0,1-2.692-2.423l5.308-5.9a25.318,25.318,0,0,0,6.509-16.962V224.54a12.678,12.678,0,1,1,25.355,0v7.441a50.618,50.618,0,0,1-13.187,34.112l-6.142,6.754A1.809,1.809,0,0,1,156.252,273.439Z" transform="translate(-64.528 -168.396)" fill="#00d231"/>
    <path id="Path_11803" data-name="Path 11803" d="M147.237,245.361a1.811,1.811,0,0,1-1.34-3.03l1.7-1.869a54.222,54.222,0,0,0,14.131-36.547v-7.44a16.3,16.3,0,1,0-32.6,0v6.717a21.7,21.7,0,0,1-5.579,14.538l-4.78,5.311a1.811,1.811,0,0,1-2.692-2.423l4.78-5.311a18.084,18.084,0,0,0,4.649-12.115v-6.717a19.922,19.922,0,1,1,39.844,0v7.441A57.838,57.838,0,0,1,150.277,242.9l-1.7,1.869A1.808,1.808,0,0,1,147.237,245.361Z" transform="translate(-45.711 -140.33)" fill="#00d231"/>
    <g id="Group_9304" data-name="Group 9304" transform="translate(65.044 61.05)">
      <path id="Path_11804" data-name="Path 11804" d="M355.828,390.351a1.811,1.811,0,0,1-1.683-2.478,61.48,61.48,0,0,0,2.314-7.064,1.811,1.811,0,1,1,3.5.916,64.92,64.92,0,0,1-2.45,7.482A1.812,1.812,0,0,1,355.828,390.351Z" transform="translate(-300.248 -362.657)" fill="#00d231" opacity="0.53"/>
      <path id="Path_11805" data-name="Path 11805" d="M93.752,314.394a1.811,1.811,0,0,1-1.345-3.023l4.251-4.724a10.847,10.847,0,0,0,2.789-7.269,1.811,1.811,0,1,1,3.622,0,14.465,14.465,0,0,1-3.72,9.692L95.1,313.795A1.8,1.8,0,0,1,93.752,314.394Z" transform="translate(-91.941 -297.567)" fill="#00d231" opacity="0.53"/>
    </g>
    <g id="Group_9305" data-name="Group 9305" transform="translate(72.549 29.236)">
      <path id="Path_11806" data-name="Path 11806" d="M344.289,211.539a1.673,1.673,0,0,1-.249-.018,1.81,1.81,0,0,1-1.548-2.041,62.1,62.1,0,0,0,.578-8.442V193.6a23.583,23.583,0,0,0-7.821-17.508,1.812,1.812,0,0,1,2.421-2.7,27.212,27.212,0,0,1,9.022,20.2v7.441a65.736,65.736,0,0,1-.612,8.937A1.81,1.81,0,0,1,344.289,211.539Z" transform="translate(-292.36 -166.69)" fill="#00d231" opacity="0.53"/>
      <path id="Path_11807" data-name="Path 11807" d="M130.335,171.219a1.811,1.811,0,0,1-1.811-1.811,27.3,27.3,0,0,1,23.287-26.891,1.812,1.812,0,0,1,.515,3.587,23.654,23.654,0,0,0-20.18,23.3A1.811,1.811,0,0,1,130.335,171.219Z" transform="translate(-128.524 -142.5)" fill="#00d231" opacity="0.53"/>
    </g>
    <path id="Path_11808" data-name="Path 11808" d="M278.814,148.3a1.822,1.822,0,0,1-.777-.175,23.279,23.279,0,0,0-6.718-2.031,1.812,1.812,0,0,1,.515-3.587,26.921,26.921,0,0,1,7.76,2.345,1.812,1.812,0,0,1-.779,3.447Z" transform="translate(-168.238 -113.258)" fill="#00d231" opacity="0.53"/>
    <g id="Group_9306" data-name="Group 9306" transform="translate(61.817 21.733)">
      <path id="Path_11809" data-name="Path 11809" d="M78.024,194.549a1.811,1.811,0,0,1-1.345-3.023l2.093-2.326a3.617,3.617,0,0,0,.929-2.423V180.06a34.26,34.26,0,0,1,9.378-23.589,1.81,1.81,0,1,1,2.635,2.483,30.663,30.663,0,0,0-8.391,21.105v6.717a7.23,7.23,0,0,1-1.86,4.846l-2.093,2.326A1.8,1.8,0,0,1,78.024,194.549Z" transform="translate(-76.213 -145.649)" fill="#00d231" opacity="0.53"/>
      <path id="Path_11810" data-name="Path 11810" d="M279.485,149.595a1.811,1.811,0,0,1-1.811-1.811v-7.441a30.823,30.823,0,0,0-30.789-30.789c-.578,0-1.151.018-1.721.048a1.812,1.812,0,0,1-.191-3.618q.95-.05,1.912-.051A34.45,34.45,0,0,1,281.3,140.343v7.441A1.81,1.81,0,0,1,279.485,149.595Z" transform="translate(-208.986 -105.932)" fill="#00d231" opacity="0.53"/>
    </g>
    <g id="Group_9307" data-name="Group 9307" transform="translate(58.101 14.489)">
      <path id="Path_11811" data-name="Path 11811" d="M163.428,120.083a1.812,1.812,0,0,1-1.036-3.3,34.273,34.273,0,0,1,10.273-4.857,1.812,1.812,0,0,1,.983,3.488,30.535,30.535,0,0,0-9.187,4.344A1.8,1.8,0,0,1,163.428,120.083Z" transform="translate(-140.377 -103.399)" fill="#959cb3"/>
      <path id="Path_11812" data-name="Path 11812" d="M59.914,112.275c-.028,0-.056,0-.083,0a1.811,1.811,0,0,1-1.728-1.891A41.572,41.572,0,0,1,99.716,70.62a42.16,42.16,0,0,1,5.979.426,1.812,1.812,0,0,1-.517,3.587,38.055,38.055,0,0,0-43.457,35.912A1.811,1.811,0,0,1,59.914,112.275Z" transform="translate(-58.101 -70.62)" fill="#959cb3"/>
      <path id="Path_11813" data-name="Path 11813" d="M405.366,151.432a1.812,1.812,0,0,1-1.716-1.233,37.815,37.815,0,0,0-8.054-13.6,1.811,1.811,0,1,1,2.667-2.451,41.419,41.419,0,0,1,8.82,14.9,1.813,1.813,0,0,1-1.139,2.3A1.838,1.838,0,0,1,405.366,151.432Z" transform="translate(-325.974 -120.644)" fill="#959cb3"/>
    </g>
    <g id="Group_9308" data-name="Group 9308" transform="translate(60.812 10.813)">
      <path id="Path_11814" data-name="Path 11814" d="M327.556,90.4a1.792,1.792,0,0,1-1.081-.361,37.932,37.932,0,0,0-10.417-5.5,1.811,1.811,0,1,1,1.173-3.428,41.48,41.48,0,0,1,11.41,6.028,1.81,1.81,0,0,1-1.085,3.261Z" transform="translate(-264.872 -75.207)" fill="#afb9d2"/>
      <path id="Path_11815" data-name="Path 11815" d="M73.127,70.869A1.811,1.811,0,0,1,71.7,67.942a49.2,49.2,0,0,1,19.842-15.1,1.811,1.811,0,0,1,1.389,3.346A45.577,45.577,0,0,0,74.554,70.174,1.809,1.809,0,0,1,73.127,70.869Z" transform="translate(-71.316 -52.704)" fill="#afb9d2"/>
    </g>
    <path id="Path_11816" data-name="Path 11816" d="M245.816,53.42a1.8,1.8,0,0,1-1.306-.557,44.89,44.89,0,0,0-32.642-13.932,45.392,45.392,0,0,0-10.437,1.213,1.81,1.81,0,1,1-.835-3.523,48.966,48.966,0,0,1,11.272-1.312,48.477,48.477,0,0,1,35.255,15.046,1.81,1.81,0,0,1-1.306,3.065Z" transform="translate(-112.152 -28.065)" fill="#c7cfe2"/>
    <path id="Path_11817" data-name="Path 11817" d="M356.917,24.739a1.8,1.8,0,0,1-.845-.21,53.083,53.083,0,0,0-5.139-2.377,1.81,1.81,0,1,1,1.339-3.364,55.9,55.9,0,0,1,5.495,2.54,1.811,1.811,0,0,1-.849,3.412Z" transform="translate(-231.846 -14.829)" fill="#afb9d2"/>
    <path id="Path_11818" data-name="Path 11818" d="M139.163,8.992a1.811,1.811,0,0,1-.788-3.442A55.522,55.522,0,0,1,162.706,0a56.225,56.225,0,0,1,13.137,1.551A1.812,1.812,0,0,1,175,5.074a52.548,52.548,0,0,0-12.29-1.452,51.931,51.931,0,0,0-22.757,5.189A1.811,1.811,0,0,1,139.163,8.992Z" transform="translate(-62.99)" fill="#c7cfe2"/>
  </g>
</svg>
