<svg xmlns="http://www.w3.org/2000/svg" width="24" height="16.8" viewBox="0 0 24 16.8">
  <path id="Icon_awesome-users" data-name="Icon awesome-users" d="M3.6,9.45a2.4,2.4,0,1,0-2.4-2.4A2.4,2.4,0,0,0,3.6,9.45Zm16.8,0A2.4,2.4,0,1,0,18,7.05,2.4,2.4,0,0,0,20.4,9.45Zm1.2,1.2H19.2a2.393,2.393,0,0,0-1.691.7,5.485,5.485,0,0,1,2.816,4.1H22.8a1.2,1.2,0,0,0,1.2-1.2v-1.2A2.4,2.4,0,0,0,21.6,10.65Zm-9.6,0a4.2,4.2,0,1,0-4.2-4.2A4.2,4.2,0,0,0,12,10.65Zm2.88,1.2h-.311a5.8,5.8,0,0,1-5.137,0H9.12A4.321,4.321,0,0,0,4.8,16.17v1.08a1.8,1.8,0,0,0,1.8,1.8H17.4a1.8,1.8,0,0,0,1.8-1.8V16.17A4.321,4.321,0,0,0,14.88,11.85Zm-8.389-.5a2.393,2.393,0,0,0-1.691-.7H2.4A2.4,2.4,0,0,0,0,13.05v1.2a1.2,1.2,0,0,0,1.2,1.2H3.671A5.5,5.5,0,0,1,6.491,11.347Z" transform="translate(0 -2.25)" fill="#737373"/>
</svg>
