<svg xmlns="http://www.w3.org/2000/svg" width="47" height="47" viewBox="0 0 47 47">
  <g id="Group_9381" data-name="Group 9381" transform="translate(-43 -336)">
    <rect id="Rectangle_2142" data-name="Rectangle 2142" width="47" height="47" rx="11" transform="translate(43 336)" fill="#fff"/>
    <path id="money-withdraw-svgrepo-com" d="M12,12a3,3,0,1,0,3,3A3,3,0,0,0,12,12Zm0,4a1,1,0,1,1,1-1A1,1,0,0,1,12,16Zm-.71-6.29a1,1,0,0,0,.33.21.94.94,0,0,0,.76,0,1,1,0,0,0,.33-.21L15,7.46A1.032,1.032,0,1,0,13.54,6L13,6.59V3a1,1,0,0,0-2,0V6.59L10.46,6A1.032,1.032,0,1,0,9,7.46ZM19,15a1,1,0,1,0-1,1A1,1,0,0,0,19,15Zm1-7H17a1,1,0,0,0,0,2h3a1,1,0,0,1,1,1v8a1,1,0,0,1-1,1H4a1,1,0,0,1-1-1V11a1,1,0,0,1,1-1H7A1,1,0,0,0,7,8H4a3,3,0,0,0-3,3v8a3,3,0,0,0,3,3H20a3,3,0,0,0,3-3V11A3,3,0,0,0,20,8ZM5,15a1,1,0,1,0,1-1A1,1,0,0,0,5,15Z" transform="translate(55 348)" fill="#d00010"/>
    <g id="mastercard-2-logo-svgrepo-com_1_" data-name="mastercard-2-logo-svgrepo-com (1)" transform="translate(60.65 338.861)">
      <path id="Path_11796" data-name="Path 11796" d="M115.35,1318.483v.025h.024a.026.026,0,0,0,.013,0,.011.011,0,0,0,0-.01.011.011,0,0,0,0-.01.023.023,0,0,0-.013,0h-.024Zm.024-.018a.045.045,0,0,1,.028.008.027.027,0,0,1,.01.022.026.026,0,0,1-.008.02.037.037,0,0,1-.023.009l.032.036h-.024l-.029-.036h-.009v.036h-.02v-.1h.044Zm-.006.129a.08.08,0,0,0,.031-.006.083.083,0,0,0,.025-.017.08.08,0,0,0,.017-.025.082.082,0,0,0,0-.063.08.08,0,0,0-.043-.043.08.08,0,0,0-.031-.006.083.083,0,0,0-.032.006.088.088,0,0,0-.026.017.082.082,0,0,0-.017.089.077.077,0,0,0,.017.025.08.08,0,0,0,.026.017.079.079,0,0,0,.032.006m0-.184a.107.107,0,0,1,.075.031.1.1,0,0,1,.022.033.1.1,0,0,1,0,.08.109.109,0,0,1-.022.033.115.115,0,0,1-.033.022.1.1,0,0,1-.041.008.106.106,0,0,1-.042-.008.114.114,0,0,1-.034-.022.109.109,0,0,1-.022-.034.1.1,0,0,1,0-.08.1.1,0,0,1,.056-.055.106.106,0,0,1,.042-.008m-9.722-.37a.316.316,0,1,1,.316.333.313.313,0,0,1-.316-.333m.844,0v-.521h-.227v.127a.4.4,0,0,0-.329-.153.548.548,0,0,0,0,1.094.4.4,0,0,0,.329-.153v.126h.226v-.521Zm7.656,0a.316.316,0,1,1,.316.333.313.313,0,0,1-.316-.333m.844,0v-.94h-.227v.545a.4.4,0,0,0-.329-.153.548.548,0,0,0,0,1.094.4.4,0,0,0,.329-.153v.126h.227Zm-5.688-.344a.259.259,0,0,1,.264.253h-.541a.268.268,0,0,1,.277-.253m0-.2a.548.548,0,0,0,.015,1.094.633.633,0,0,0,.427-.146l-.111-.168a.5.5,0,0,1-.3.109.289.289,0,0,1-.312-.255h.774c0-.028,0-.057,0-.087a.5.5,0,0,0-.495-.547m2.736.547a.316.316,0,1,1,.316.334.313.313,0,0,1-.316-.334m.844,0v-.521h-.226v.127a.4.4,0,0,0-.329-.153.548.548,0,0,0,0,1.094.4.4,0,0,0,.329-.153v.126h.227v-.521Zm-2.123,0a.527.527,0,0,0,.556.547.545.545,0,0,0,.375-.125l-.109-.183a.457.457,0,0,1-.273.094.334.334,0,0,1,0-.667.458.458,0,0,1,.273.094l.109-.183a.544.544,0,0,0-.375-.125.527.527,0,0,0-.556.547m2.921-.547a.308.308,0,0,0-.275.153v-.126h-.225v1.042h.227v-.584c0-.172.074-.268.222-.268a.366.366,0,0,1,.142.026l.07-.214a.481.481,0,0,0-.161-.029m-6.074.109a.778.778,0,0,0-.425-.109c-.264,0-.434.126-.434.333,0,.17.127.275.36.308l.107.015c.124.018.183.05.183.109,0,.081-.083.126-.238.126a.554.554,0,0,1-.347-.109l-.106.177a.752.752,0,0,0,.451.135c.3,0,.475-.142.475-.34,0-.183-.137-.279-.364-.312l-.107-.016c-.1-.013-.177-.032-.177-.1s.074-.122.2-.122a.673.673,0,0,1,.325.089l.1-.183Zm2.924-.109a.307.307,0,0,0-.274.153v-.127h-.225v1.042h.227v-.584c0-.172.074-.268.222-.268a.366.366,0,0,1,.142.026l.07-.214a.481.481,0,0,0-.161-.029m-1.934.026h-.371v-.316H108v.316h-.211v.207H108v.475c0,.242.094.386.362.386a.533.533,0,0,0,.283-.081l-.065-.194a.418.418,0,0,1-.2.059c-.113,0-.15-.07-.15-.175v-.471h.371Zm-3.388,1.042v-.654a.388.388,0,0,0-.41-.414.4.4,0,0,0-.366.186.382.382,0,0,0-.344-.186.345.345,0,0,0-.305.155v-.129h-.227v1.042h.229v-.578a.244.244,0,0,1,.255-.277c.15,0,.227.1.227.275v.58h.229v-.578a.246.246,0,0,1,.255-.277c.155,0,.229.1.229.275v.58Z" transform="translate(-102.902 -1308.738)" fill="#231f20"/>
      <path id="Path_11797" data-name="Path 11797" d="M1929.181,977.372v-.152h-.04l-.046.1-.046-.1h-.04v.152h.028v-.115l.043.1h.029l.043-.1v.115h.028Zm-.252,0v-.126h.051v-.026h-.13v.026h.051v.126h.028Z" transform="translate(-1916.604 -971.016)" fill="#f79410"/>
      <path id="Path_11798" data-name="Path 11798" d="M733.144,138.321H729.71V132.15h3.434Z" transform="translate(-725.077 -131.312)" fill="#ff5f00"/>
      <path id="Path_11799" data-name="Path 11799" d="M4.851,3.924A3.918,3.918,0,0,1,6.35.838a3.925,3.925,0,1,0,0,6.171,3.918,3.918,0,0,1-1.5-3.086" transform="translate(0 0)" fill="#eb001b"/>
      <path id="Path_11800" data-name="Path 11800" d="M1006.46,3.924a3.925,3.925,0,0,1-6.35,3.086,3.925,3.925,0,0,0,0-6.171,3.924,3.924,0,0,1,6.35,3.086" transform="translate(-993.76 0)" fill="#f79e1b"/>
    </g>
  </g>
</svg>
