<svg xmlns="http://www.w3.org/2000/svg" width="47" height="47" viewBox="0 0 47 47">
  <g id="Group_9380" data-name="Group 9380" transform="translate(-43 -262)">
    <rect id="Rectangle_2205" data-name="Rectangle 2205" width="47" height="47" rx="11" transform="translate(43 262)" fill="#fff"/>
    <g id="d8eab7a13d4255428253eef1b2e64b0d" transform="translate(32.309 262.004)">
      <g id="Group_9331" data-name="Group 9331" transform="translate(21 10)">
        <g id="Layer_5_40_" transform="translate(0 0)">
          <g id="Group_9330" data-name="Group 9330">
            <path id="Path_11855" data-name="Path 11855" d="M657.452,254.469c-.815-.328-1.049-.523-1.049-.881,0-.286.215-.62.826-.62a2.26,2.26,0,0,1,.956.215.322.322,0,0,0,.14.036.28.28,0,0,0,.264-.182l.149-.38a.232.232,0,0,0-.127-.3,5.748,5.748,0,0,0-.986-.256.053.053,0,0,1-.047-.052l0-.548a.3.3,0,0,0-.308-.3H657a.3.3,0,0,0-.308.3v.578c0,.044-.047.063-.066.069a1.6,1.6,0,0,0-1.33,1.55c0,.942.779,1.369,1.622,1.688.672.264.947.531.947.925,0,.427-.388.727-.945.727a3.346,3.346,0,0,1-1.126-.306.308.308,0,0,0-.129-.03.291.291,0,0,0-.273.19l-.141.383a.251.251,0,0,0,.127.311,4.832,4.832,0,0,0,1.2.33.066.066,0,0,1,.055.061v.576a.3.3,0,0,0,.308.3h.275a.3.3,0,0,0,.308-.3v-.606a.056.056,0,0,1,.05-.063,1.668,1.668,0,0,0,1.41-1.636C658.981,255.425,658.524,254.893,657.452,254.469Z" transform="translate(-637.773 -244.558)" fill="#d00010"/>
            <path id="Path_11856" data-name="Path 11856" d="M468,179.656v8.986a1.259,1.259,0,0,0,1.256,1.256h1.677l.24,1.644a1,1,0,0,0,.969.906,1.1,1.1,0,0,0,.688-.259l2.589-2.11a1.094,1.094,0,0,1,.509-.182h1.391v-.005h3.632a1.24,1.24,0,0,0,1.121-1.25v-8.986a1.257,1.257,0,0,0-1.256-1.256H469.256A1.259,1.259,0,0,0,468,179.656Zm1.217.978a.712.712,0,0,1,.711-.711h10.217a.712.712,0,0,1,.711.711v7.177a.712.712,0,0,1-.711.711h-4.654a1.688,1.688,0,0,0-.975.449l-2.03,1.655-.146-1.008c-.077-.521-.452-1.093-.964-1.093h-1.446a.712.712,0,0,1-.711-.711l0-7.179Z" transform="translate(-455.69 -173.762)" fill="#d00010"/>
            <path id="Path_11857" data-name="Path 11857" d="M24.6,13.586h7.034a.71.71,0,0,0,.6-.322,1.611,1.611,0,0,1,1.173-.507h6.849c.187,0,.187-.226.187-.226V11.248A1.252,1.252,0,0,0,39.2,10H22.248A1.252,1.252,0,0,0,21,11.248v24.5a1.252,1.252,0,0,0,1.248,1.248H39.2a1.252,1.252,0,0,0,1.248-1.248v-6.62c0-.427-.231-.207-.231-.207L38.3,30.475a.543.543,0,0,0-.207.394v1.289a1.252,1.252,0,0,1-1.248,1.248H24.6a1.252,1.252,0,0,1-1.248-1.248V14.836A1.252,1.252,0,0,1,24.6,13.586Zm6.119,20.646A1.024,1.024,0,1,1,29.7,35.256,1.026,1.026,0,0,1,30.721,34.232Z" transform="translate(-21 -10)" fill="#d00010"/>
          </g>
        </g>
      </g>
    </g>
  </g>
</svg>
