<svg xmlns="http://www.w3.org/2000/svg" width="17.015" height="17.18" viewBox="0 0 17.015 17.18">
  <g id="music-teacher-svgrepo-com" transform="translate(-0.121)">
    <path id="Path_3167" data-name="Path 3167" d="M16.036.338a.66.66,0,0,0-.162.268l.04.015A.717.717,0,0,1,16.036.338Z" transform="translate(-5 -0.107)" fill="#b8b8b8"/>
    <path id="Path_3168" data-name="Path 3168" d="M10.52,24.393h9.917v-1.5H12.666A5.067,5.067,0,0,1,10.52,24.393Z" transform="translate(-3.3 -7.265)" fill="#b8b8b8"/>
    <path id="Path_3169" data-name="Path 3169" d="M21.6,21.459v-1.5h-6.75a5,5,0,0,1-.655,1.5Z" transform="translate(-4.468 -6.333)" fill="#b8b8b8"/>
    <path id="Path_3170" data-name="Path 3170" d="M14.046,15.527A5.109,5.109,0,0,1,14,16.17l5.8-.006c.177,0,.192-.6.192-.6a7.287,7.287,0,0,0-.739-3.767c-.29-.644-2.057-1.2-2.057-1.2-.942-.33-.95-.662-.95-.662-1.853,3.653-3.26.009-3.26.009-.1.4-1.356.849-1.842,1.01A5.066,5.066,0,0,1,14.046,15.527Z" transform="translate(-3.498 -3.151)" fill="#b8b8b8"/>
    <path id="Path_3171" data-name="Path 3171" d="M13.03,4.849c.142,1.173,1.152,2.389,2.068,2.389,1.054,0,2.056-1.278,2.213-2.389a.549.549,0,0,0,.191-.377s.226-.806-.072-.719a2.466,2.466,0,0,0-.218-2.272A2.124,2.124,0,0,0,16.138.828c-.026-.022-.053-.046-.084-.067,0,0,.016.018.04.055C16.052.8,16.007.792,15.961.78c-.041-.042-.087-.087-.14-.134a1.167,1.167,0,0,1,.1.127l-.06-.014A1.23,1.23,0,0,0,15.733.6s.023.042.051.108C15.644.6,15.362.364,15.362.1a.775.775,0,0,0-.278.232A.7.7,0,0,1,15.3,0a.765.765,0,0,0-.223.186.7.7,0,0,0-.335.407l-.06-.031a.938.938,0,0,1,.128-.2.905.905,0,0,0-.154.189L14.536.487a.981.981,0,0,1,.148-.206,1.1,1.1,0,0,0-.136.136c.02-.08.017-.171-.229.1a2.79,2.79,0,0,0-1.431,1.475,3.588,3.588,0,0,0,.061,1.776c-.356-.169-.113.7-.113.7A.54.54,0,0,0,13.03,4.849ZM15.046.231a.717.717,0,0,0-.123.283L14.884.5A.669.669,0,0,1,15.046.231Z" transform="translate(-4.01)" fill="#b8b8b8"/>
    <path id="Path_3172" data-name="Path 3172" d="M9.732,15.9A4.805,4.805,0,1,0,4.927,20.7,4.805,4.805,0,0,0,9.732,15.9ZM3.238,18.684a1.073,1.073,0,0,1,.928-1.167,1.4,1.4,0,0,1,.8.025V12.167a.354.354,0,0,1,.343-.273s0,.268,1.628,1.408a2.071,2.071,0,0,1,.834,1.528c-1.088-1.707-2.2-1.647-2.2-1.647l-.014,5.1h0a1.144,1.144,0,0,1-.948.988C3.973,19.436,3.31,19.135,3.238,18.684Z" transform="translate(0 -3.52)" fill="#b8b8b8"/>
  </g>
</svg>
