<svg xmlns="http://www.w3.org/2000/svg" xmlns:xlink="http://www.w3.org/1999/xlink" width="40" height="40" viewBox="0 0 40 40">
  <defs>
    <filter id="Rectangle_2200" x="0" y="0" width="40" height="40" filterUnits="userSpaceOnUse">
      <feOffset dy="3" input="SourceAlpha"/>
      <feGaussianBlur stdDeviation="3" result="blur"/>
      <feFlood flood-opacity="0.161"/>
      <feComposite operator="in" in2="blur"/>
      <feComposite in="SourceGraphic"/>
    </filter>
  </defs>
  <g id="Group_9381" data-name="Group 9381" transform="translate(-30 -340.405)">
    <g transform="matrix(1, 0, 0, 1, 30, 340.4)" filter="url(#Rectangle_2200)">
      <rect id="Rectangle_2200-2" data-name="Rectangle 2200" width="22" height="22" rx="4" transform="translate(9 6)" fill="#fff"/>
    </g>
    <path id="Icon_awesome-calendar-alt" data-name="Icon awesome-calendar-alt" d="M0,13.165a1.362,1.362,0,0,0,1.362,1.362h9.987a1.362,1.362,0,0,0,1.362-1.362V5.448H0ZM9.079,7.6a.341.341,0,0,1,.34-.34h1.135a.341.341,0,0,1,.34.34V8.739a.341.341,0,0,1-.34.34H9.42a.341.341,0,0,1-.34-.34Zm0,3.632a.341.341,0,0,1,.34-.34h1.135a.341.341,0,0,1,.34.34V12.37a.341.341,0,0,1-.34.34H9.42a.341.341,0,0,1-.34-.34ZM5.448,7.6a.341.341,0,0,1,.34-.34H6.923a.341.341,0,0,1,.34.34V8.739a.341.341,0,0,1-.34.34H5.788a.341.341,0,0,1-.34-.34Zm0,3.632a.341.341,0,0,1,.34-.34H6.923a.341.341,0,0,1,.34.34V12.37a.341.341,0,0,1-.34.34H5.788a.341.341,0,0,1-.34-.34ZM1.816,7.6a.341.341,0,0,1,.34-.34H3.291a.341.341,0,0,1,.34.34V8.739a.341.341,0,0,1-.34.34H2.156a.341.341,0,0,1-.34-.34Zm0,3.632a.341.341,0,0,1,.34-.34H3.291a.341.341,0,0,1,.34.34V12.37a.341.341,0,0,1-.34.34H2.156a.341.341,0,0,1-.34-.34Zm9.533-9.42H9.987V.454A.455.455,0,0,0,9.533,0H8.625a.455.455,0,0,0-.454.454V1.816H4.54V.454A.455.455,0,0,0,4.086,0H3.178a.455.455,0,0,0-.454.454V1.816H1.362A1.362,1.362,0,0,0,0,3.178V4.54H12.711V3.178A1.362,1.362,0,0,0,11.349,1.816Z" transform="translate(43.67 349.894)" fill="#d00010"/>
  </g>
</svg>
