<svg xmlns="http://www.w3.org/2000/svg" xmlns:xlink="http://www.w3.org/1999/xlink" width="40" height="40" viewBox="0 0 40 40">
  <defs>
    <filter id="Rectangle_2184" x="0" y="0" width="40" height="40" filterUnits="userSpaceOnUse">
      <feOffset dy="3" input="SourceAlpha"/>
      <feGaussianBlur stdDeviation="3" result="blur"/>
      <feFlood flood-opacity="0.161"/>
      <feComposite operator="in" in2="blur"/>
      <feComposite in="SourceGraphic"/>
    </filter>
  </defs>
  <g id="Group_9380" data-name="Group 9380" transform="translate(-29 -287)">
    <g transform="matrix(1, 0, 0, 1, 29, 287)" filter="url(#Rectangle_2184)">
      <rect id="Rectangle_2184-2" data-name="Rectangle 2184" width="22" height="22" rx="4" transform="translate(9 6)" fill="#fff"/>
    </g>
    <path id="Icon_awesome-users" data-name="Icon awesome-users" d="M1.807,5.865A1.2,1.2,0,1,0,.6,4.66,1.206,1.206,0,0,0,1.807,5.865Zm8.434,0a1.2,1.2,0,1,0-1.2-1.2A1.206,1.206,0,0,0,10.242,5.865Zm.6.6h-1.2a1.2,1.2,0,0,0-.849.35A2.754,2.754,0,0,1,10.2,8.877h1.243a.6.6,0,0,0,.6-.6v-.6A1.206,1.206,0,0,0,10.844,6.467Zm-4.82,0A2.109,2.109,0,1,0,3.916,4.359,2.107,2.107,0,0,0,6.024,6.467Zm1.446.6H7.314a2.911,2.911,0,0,1-2.579,0H4.579A2.169,2.169,0,0,0,2.41,9.238v.542a.9.9,0,0,0,.9.9H8.735a.9.9,0,0,0,.9-.9V9.238A2.169,2.169,0,0,0,7.47,7.07ZM3.259,6.817a1.2,1.2,0,0,0-.849-.35H1.2A1.206,1.206,0,0,0,0,7.672v.6a.6.6,0,0,0,.6.6H1.843A2.761,2.761,0,0,1,3.259,6.817Z" transform="translate(43.049 296.084)" fill="#d00010"/>
  </g>
</svg>
