<svg xmlns="http://www.w3.org/2000/svg" width="18.553" height="25.536" viewBox="0 0 18.553 25.536">
  <g id="number-sign-svgrepo-com" transform="translate(-41.867)">
    <path id="Path_3174" data-name="Path 3174" d="M43.7,16.1a1.909,1.909,0,1,0,.661,3.76l1.1-.193v3.961a1.909,1.909,0,0,0,3.819,0V18.995l3.406-.6v4.038a1.909,1.909,0,0,0,3.819,0V17.725l2.335-.412a1.909,1.909,0,1,0-.661-3.759l-1.674.294V9.884l2.081-.366a1.909,1.909,0,0,0-.662-3.761l-1.42.249v-4.1a1.909,1.909,0,0,0-3.819,0V6.678l-3.406.6V3.1a1.909,1.909,0,1,0-3.818,0V7.948L43.446,8.3a1.91,1.91,0,0,0,.328,3.79,1.954,1.954,0,0,0,.332-.029l1.355-.238v3.965Zm5.58-4.944,3.406-.6v3.963l-3.406.6Z" fill="#b8b8b8"/>
  </g>
</svg>
