<svg xmlns="http://www.w3.org/2000/svg" width="18.741" height="30.248" viewBox="0 0 18.741 30.248">
  <g id="Group_8911" data-name="Group 8911" transform="translate(-64 -327.376)">
    <path id="Path_3149" data-name="Path 3149" d="M339.166,304.744v9.776a1.349,1.349,0,1,0,2.7,0v-9.2A4.925,4.925,0,0,1,339.166,304.744Z" transform="translate(-270.603 41.754)" fill="#b8b8b8"/>
    <path id="Path_3150" data-name="Path 3150" d="M381.861,289.628a4.522,4.522,0,0,1-2.689,1.728v9.288a1.344,1.344,0,1,0,2.689,0C381.861,289.068,381.892,289.808,381.861,289.628Z" transform="translate(-307.327 55.631)" fill="#b8b8b8"/>
    <path id="Path_3151" data-name="Path 3151" d="M458.953,188.952a1.125,1.125,0,0,0-.8-.959,1.439,1.439,0,0,1-1.253.411l-2.678,1.935c.01.084.015.167.019.251l3.716-.4A1.125,1.125,0,0,0,458.953,188.952Z" transform="translate(-376.219 148.928)" fill="#b8b8b8"/>
    <path id="Path_3152" data-name="Path 3152" d="M337.575,142.414l-.465-.643a.6.6,0,0,0-.844-.136l-.176.127a.422.422,0,1,0-.683.494l-.256.185a.422.422,0,0,0-.683.494l-3.7,2.676a2.711,2.711,0,0,0-1.571-.533,2.042,2.042,0,0,0-1.785.995,1.313,1.313,0,0,1-1.127.639,4.192,4.192,0,0,0-2.283.164l-.447.829,2.033.554a2.266,2.266,0,0,1-1.191,4.373l-2.141-.583a4.411,4.411,0,0,0,.4.663,4.139,4.139,0,0,0,3.318,1.758,3.467,3.467,0,0,0,3.465-3.084,1.313,1.313,0,0,1,1.016-1.11,2.257,2.257,0,0,0,1.491-3.041l3.7-2.676a.422.422,0,1,0,.683-.494l.256-.185a.422.422,0,0,0,.683-.494l.176-.127A.6.6,0,0,0,337.575,142.414Z" transform="translate(-255.077 191.589)" fill="#b8b8b8"/>
    <g id="Group_8910" data-name="Group 8910" transform="translate(67.435 327.376)">
      <g id="Group_8896" data-name="Group 8896" transform="translate(0 0)">
        <path id="Path_3143" data-name="Path 3143" d="M333.608,74.352a.878.878,0,0,0-1.1-.581c-.194.06-.388.111-.584.159l-.551-2.056a.329.329,0,0,0-.392-.235l-1.023.237a1.927,1.927,0,0,1-.868,0l-1.023-.237a.329.329,0,0,0-.392.235l-.551,2.056c-.2-.048-.39-.1-.584-.159a.878.878,0,1,0-.516,1.678,12.031,12.031,0,0,0,1.173.3c0,.049-.005.1-.005.147a2.331,2.331,0,0,0,4.661,0c0-.049,0-.1-.005-.146a12,12,0,0,0,1.175-.3A.878.878,0,0,0,333.608,74.352Z" transform="translate(-325.408 -71.63)" fill="#b8b8b8"/>
      </g>
    </g>
    <path id="Path_3153" data-name="Path 3153" d="M294.108,161.043h-5.776a2.862,2.862,0,0,0-2.516,1.5l-2.151,3.985a1.125,1.125,0,0,0,.694,1.619l4.789,1.3a1.125,1.125,0,0,0,.591-2.17l-3.421-.932c1.566-2.9,1.477-2.742,1.515-2.794a.325.325,0,0,1,.589.191,4.874,4.874,0,0,1,2.261-.146.285.285,0,0,0,.3-.133,3.07,3.07,0,0,1,2.667-1.5,3.63,3.63,0,0,1,1.506.339l.765-.553A2.651,2.651,0,0,0,294.108,161.043Z" transform="translate(-219.529 173.668)" fill="#b8b8b8"/>
  </g>
</svg>
