<svg xmlns="http://www.w3.org/2000/svg" width="18.719" height="18.999" viewBox="0 0 18.719 18.999">
  <g id="Group_8912" data-name="Group 8912" transform="translate(-11224 1777.582)">
    <g id="cowboy-svgrepo-com" transform="translate(11224 -1777.582)">
      <g id="Group_8901" data-name="Group 8901" transform="translate(12.546 11.2)">
        <g id="Group_8900" data-name="Group 8900">
          <path id="Path_3145" data-name="Path 3145" d="M196.674,324.126c-1.523-1.271-1.162-2.381-.916-2.823a.129.129,0,0,0-.13-.19c-.5.068-1.564.42-1.811,2.154,0,0,0,.007,0,.011a1.6,1.6,0,0,0-1.108-.313.129.129,0,0,0-.053.244c1.412.691-.39,2.058-.72,3.222a1.852,1.852,0,0,0,1.108,2.4.129.129,0,0,0,.17-.169,2.434,2.434,0,0,1,.5-2.474,1.786,1.786,0,0,0,.578-1.63.129.129,0,0,1,.2-.116,2.067,2.067,0,0,1,.556,2.129.128.128,0,0,0,.15.163.9.9,0,0,0,.648-.494.129.129,0,0,1,.158-.072c.755.262,1.142,1.522.828,2.578a.129.129,0,0,0,.168.156C198.015,328.531,198.758,325.864,196.674,324.126Z" transform="translate(-191.832 -321.112)" fill="#b8b8b8"/>
        </g>
      </g>
      <g id="Group_8903" data-name="Group 8903" transform="translate(11.796 6.052)">
        <g id="Group_8902" data-name="Group 8902">
          <path id="Path_3146" data-name="Path 3146" d="M186.5,243.144a.729.729,0,0,0-1.015-.32c-.282-.328-.6-.49-.823-.387l-2.342,1.066c-.241.11-.32.489-.236.954l-1.723.827a1.822,1.822,0,0,1,.9,1.18l1.451-.7c.276.31.579.461.8.361l2.342-1.066c.235-.107.316-.471.242-.919A.732.732,0,0,0,186.5,243.144Z" transform="translate(-180.365 -242.407)" fill="#b8b8b8"/>
        </g>
      </g>
      <g id="Group_8905" data-name="Group 8905" transform="translate(5.808 0)">
        <g id="Group_8904" data-name="Group 8904" transform="translate(0 0)">
          <circle id="Ellipse_565" data-name="Ellipse 565" cx="2.006" cy="2.006" r="2.006" fill="#b8b8b8"/>
        </g>
      </g>
      <g id="Group_8907" data-name="Group 8907" transform="translate(0 4.204)">
        <g id="Group_8906" data-name="Group 8906">
          <path id="Path_3147" data-name="Path 3147" d="M11.131,219.585l-3.066-.7L7.02,216.13l1.1,1.532.311-.813a1.355,1.355,0,0,0-.783-1.75l-2.258-.862a1.355,1.355,0,0,0-1.75.783l-2,5.23a1.355,1.355,0,0,0,.5,1.6H2.124c-1.108,0-2.017.331-2.115.754H0v5.506H.011c0,.458.951.83,2.124.83s2.122-.371,2.124-.828c0,.012-.011-.018-.011-5.414l2.167.855-.838,4.076a1.091,1.091,0,0,0,2.137.439L8.737,223.1a1.091,1.091,0,0,0-.668-1.235s-.876-.335-1.369-.489a1.287,1.287,0,0,1-1.012-1.063l-.368-3.534,1.218,3.212a.909.909,0,0,0,.648.564l3.541.807a.909.909,0,1,0,.4-1.773Z" transform="translate(0 -214.147)" fill="#b8b8b8"/>
        </g>
      </g>
      <g id="Group_8909" data-name="Group 8909" transform="translate(4.26 18.169)">
        <g id="Group_8908" data-name="Group 8908">
          <path id="Path_3148" data-name="Path 3148" d="M65.131,427.684h0A.011.011,0,0,1,65.131,427.684Z" transform="translate(-65.131 -427.683)" fill="#b8b8b8"/>
        </g>
      </g>
    </g>
  </g>
</svg>
