<svg xmlns="http://www.w3.org/2000/svg" width="47" height="47" viewBox="0 0 47 47">
  <g id="Group_9379" data-name="Group 9379" transform="translate(-43 -126)">
    <rect id="Rectangle_2142" data-name="Rectangle 2142" width="47" height="47" rx="11" transform="translate(43 126)" fill="#fff"/>
    <path id="money-withdraw-svgrepo-com" d="M12,12a3,3,0,1,0,3,3A3,3,0,0,0,12,12Zm0,4a1,1,0,1,1,1-1A1,1,0,0,1,12,16Zm-.71-6.29a1,1,0,0,0,.33.21.94.94,0,0,0,.76,0,1,1,0,0,0,.33-.21L15,7.46A1.032,1.032,0,1,0,13.54,6L13,6.59V3a1,1,0,0,0-2,0V6.59L10.46,6A1.032,1.032,0,1,0,9,7.46ZM19,15a1,1,0,1,0-1,1A1,1,0,0,0,19,15Zm1-7H17a1,1,0,0,0,0,2h3a1,1,0,0,1,1,1v8a1,1,0,0,1-1,1H4a1,1,0,0,1-1-1V11a1,1,0,0,1,1-1H7A1,1,0,0,0,7,8H4a3,3,0,0,0-3,3v8a3,3,0,0,0,3,3H20a3,3,0,0,0,3-3V11A3,3,0,0,0,20,8ZM5,15a1,1,0,1,0,1-1A1,1,0,0,0,5,15Z" transform="translate(55 138)" fill="#d00010"/>
    <g id="Group_9301" data-name="Group 9301" transform="translate(53.514 128.847)">
      <g id="Group_2864" data-name="Group 2864" transform="translate(0 0.025)">
        <path id="Path_5972" data-name="Path 5972" d="M361.785,503.06l-2.63,7.963h2.432l2.6-7.963" transform="translate(-351 -502.824)" fill="#335999"/>
        <path id="Path_5973" data-name="Path 5973" d="M349.494,502.78s1.572.4,1.61,1.432l.332,6.53h2.019l5.242-7.961h-1.98l-2.9,4.5v-4.5Z" transform="translate(-349.494 -502.78)" fill="#335999"/>
        <path id="Path_5974" data-name="Path 5974" d="M379.507,503.06h-2.281l-4.767,7.963h2.127l.571-1.138h2.505l.137,1.138h2.174Zm-3.69,5.688,1.605-3,.219,3Z" transform="translate(-353.075 -502.824)" fill="#335999"/>
        <path id="Path_5975" data-name="Path 5975" d="M368.735,504.536a2.894,2.894,0,0,1,2.434.488l.777-1.263s-2.682-1.791-4.957,0c0,0-2.267,1.784.006,3.562h0l1.418,1.092s.067.08.125.144a.731.731,0,0,1-.081.71.429.429,0,0,1-.041.038c-1.18,1.042-3.335-.375-3.335-.375l-.479,1.475c3.271,1.5,5.1.056,5.1.056,2.315-2.06.387-3.554.075-3.8h0l-1.437-1.237a.223.223,0,0,1-.081-.191A1.006,1.006,0,0,1,368.735,504.536Z" transform="translate(-351.85 -502.809)" fill="#335999"/>
      </g>
      <path id="Path_5976" data-name="Path 5976" d="M353.825,506.066a21.034,21.034,0,0,0-1.585-1.529,9.276,9.276,0,0,0-2.726-1.787h4.315Z" transform="translate(-349.497 -502.75)" fill="#fbb03b"/>
    </g>
  </g>
</svg>
