<svg xmlns="http://www.w3.org/2000/svg" width="22.586" height="25.813" viewBox="0 0 22.586 25.813">
  <path id="Icon_metro-file-video" data-name="Icon metro-file-video" d="M26.021,7.7a22.85,22.85,0,0,0-2.2-2.513,22.863,22.863,0,0,0-2.513-2.2,4.021,4.021,0,0,0-2.292-1.064H6.515A2.019,2.019,0,0,0,4.5,3.945v21.78a2.019,2.019,0,0,0,2.017,2.017H25.068a2.019,2.019,0,0,0,2.017-2.017V9.995A4.02,4.02,0,0,0,26.021,7.7ZM22.683,6.33a22,22,0,0,1,1.83,2.051H20.632V4.5A21.993,21.993,0,0,1,22.683,6.33Zm2.789,19.394a.409.409,0,0,1-.4.4H6.515a.409.409,0,0,1-.4-.4V3.945a.409.409,0,0,1,.4-.4h12.5V9.188a.807.807,0,0,0,.807.807h5.647ZM8.658,11.818h8.067v8.067H8.658V11.818Zm8.067,3.227,4.84-3.227v8.067l-4.84-3.227Z" transform="translate(-4.499 -1.928)" fill="#b8b8b8"/>
</svg>
